<svg xmlns="http://www.w3.org/2000/svg" viewBox="0 0 51.32 51.32">
  <path d="M42.8 4.63a3.86 3.86 0 0 0-.04 0 3.91 3.91 0 0 0-3.02 6.46l-.47.47a.17.17 0 0 0-.07.14c0 .04.02.08.06.12l.23.23c.04.05.08.06.13.06a.2.2 0 0 0 .13-.06l.48-.48a3.94 3.94 0 0 0 4.52.38 3.86 3.86 0 0 0 1.94-3.39 3.96 3.96 0 0 0-.9-2.54l.46-.47a.17.17 0 0 0 .06-.12c0-.04-.03-.09-.07-.13L46 5.07a.18.18 0 0 0-.13-.06.17.17 0 0 0-.12.06l-.46.46a3.86 3.86 0 0 0-2.49-.9zm-17.04.02c-.5 0-.96.09-1.38.27a2.1 2.1 0 0 0-1.4 2.03A2 2 0 0 0 23.24 8c.18.28.44.5.77.7.34.17.77.34 1.3.5.35.1.6.2.8.26.19.07.33.15.43.24.1.1.15.2.15.33 0 .17-.09.3-.27.4-.18.1-.4.16-.66.16a3.8 3.8 0 0 1-1-.13 6.98 6.98 0 0 1-.99-.36.46.46 0 0 0-.17-.05c-.1 0-.18.05-.23.15l-.61 1.1a.4.4 0 0 0-.06.18c0 .09.04.16.13.22a5.96 5.96 0 0 0 2.87.76c.54 0 1.03-.1 1.47-.3a2.17 2.17 0 0 0 1.45-2.1 1.84 1.84 0 0 0-1.15-1.8c-.35-.17-.8-.34-1.35-.5a5.7 5.7 0 0 1-.99-.36c-.2-.1-.3-.24-.3-.4 0-.13.08-.25.24-.34.16-.1.34-.14.56-.14.3 0 .58.04.82.12.25.07.51.2.8.33.1.05.17.07.23.07.1 0 .16-.04.2-.13l.63-1.12a.43.43 0 0 0 .06-.2c0-.08-.05-.16-.15-.23a5.23 5.23 0 0 0-2.46-.71zm-15.48.11l-1.47.01a.34.34 0 0 0-.2.07c-.06.04-.1.1-.13.18L6.82 9.59 5.18 5.03a.38.38 0 0 0-.13-.19.32.32 0 0 0-.2-.06H3.38a.25.25 0 0 0-.16.04.16.16 0 0 0-.06.13c0 .03 0 .07.02.12l2.75 7.01a.4.4 0 0 0 .14.19c.06.04.13.07.2.07h1.1c.08 0 .14-.03.2-.07a.38.38 0 0 0 .15-.2l.85-2.17.8 2.18a.38.38 0 0 0 .35.25h1.1a.3.3 0 0 0 .2-.07.39.39 0 0 0 .14-.18l2.76-7a.4.4 0 0 0 .03-.13c0-.05-.02-.1-.06-.13a.25.25 0 0 0-.17-.05h-1.47a.34.34 0 0 0-.2.07c-.06.04-.1.1-.13.18L10.25 9.6l-.77-2 1-2.54a.3.3 0 0 0 .02-.12c0-.06-.02-.1-.06-.13a.26.26 0 0 0-.16-.05zM42.77 6.5a2.05 2.05 0 0 1 1.2.37l-2.89 2.88a2.05 2.05 0 0 1-.38-1.19 2.03 2.03 0 0 1 1.02-1.79 2.1 2.1 0 0 1 1.05-.27zm1.68.86a2.1 2.1 0 0 1 .1 2.23 2.04 2.04 0 0 1-2.42.92 2.1 2.1 0 0 1-.56-.28zm-1.6 14.39c-.5 0-.94.1-1.37.27-.42.18-.76.44-1 .8-.27.34-.4.75-.4 1.23 0 .43.1.78.27 1.06.18.28.43.5.77.7.33.17.77.34 1.3.5l.8.25c.18.08.32.16.42.25.1.1.16.2.16.32 0 .17-.1.31-.27.42-.18.1-.4.15-.67.15a3.8 3.8 0 0 1-1-.13 6.98 6.98 0 0 1-.98-.37.46.46 0 0 0-.18-.04c-.1 0-.17.05-.23.14l-.6 1.1a.4.4 0 0 0-.06.19c0 .09.04.16.13.21a5.98 5.98 0 0 0 2.87.76c.53 0 1.03-.1 1.47-.29.44-.19.8-.47 1.05-.83.26-.36.4-.79.4-1.28 0-.45-.11-.83-.32-1.1a2.17 2.17 0 0 0-.84-.7 8.9 8.9 0 0 0-1.35-.5 5.7 5.7 0 0 1-.98-.35c-.2-.11-.3-.24-.3-.4 0-.14.07-.25.23-.35.16-.09.35-.14.56-.14.31 0 .6.04.83.12.24.08.5.2.8.34.09.04.16.07.22.07.1 0 .17-.05.22-.14l.61-1.11a.43.43 0 0 0 .07-.2c0-.1-.05-.16-.16-.23a5.2 5.2 0 0 0-2.46-.71zm-18.02.13a.2.2 0 0 0-.01 0h-1.47a.22.22 0 0 0-.15.06c-.04.03-.05.08-.05.14v7.16c0 .06 0 .1.05.14.04.04.09.05.15.05h4.62c.06 0 .1 0 .15-.05a.2.2 0 0 0 .05-.14v-1.39a.2.2 0 0 0-.05-.14c-.04-.04-.09-.05-.15-.05h-2.95v-5.58a.2.2 0 0 0-.05-.14.2.2 0 0 0-.14-.06zm15.41 17.07a.27.27 0 0 0-.2.08.27.27 0 0 0-.07.2v1.24c0 .1.02.16.07.21.05.05.11.07.2.07h1.58v5.55c0 .08.03.15.07.2.05.05.12.07.2.07h1.33c.09 0 .16-.02.2-.07.05-.04.08-.1.08-.2v-5.55h1.59c.08 0 .15-.02.2-.07a.3.3 0 0 0 .07-.2v-1.25a.27.27 0 0 0-.07-.2.27.27 0 0 0-.2-.08z" fill="#45de99"/>
  <circle r=".46" cy="25.66" cx="8.55" fill="#45de99"/>
  <circle r=".46" cy="42.76" cx="8.55" fill="#45de99"/>
  <circle r=".46" cy="42.76" cx="25.66" fill="#45de99"/>
</svg>
